# xmcd
#
# Track frame offsets:
#	150
#	12997
#	24554
#	40871
#	53585
#	70510
#	85197
#	98796
#	115866
#
# Disc length: 1669 seconds
#
# Revision: 0
# Processed by: cddbd v1.4PL0 Copyright (c) Steve Scherf et al.
# Submitted via: EasyCDDAExtractor 4.5.0.2
#
DISCID=63068309
DTITLE=David Allan Coe - Standing Too Close To The Flame
DYEAR=1993
DGENRE=Country
TTITLE0=Lead Me Not Into Temptation
TTITLE1=Self Inflicted Wound
TTITLE2=A Place Like This
TTITLE3=I'm Not Begging You To Stay
TTITLE4=Desperate Man
TTITLE5=Standing Too Close To The Flame
TTITLE6=When A Fool Becomes A man
TTITLE7=Revelation
TTITLE8=Did You Know Elvis
EXTD=
EXTT0=
EXTT1=
EXTT2=
EXTT3=
EXTT4=
EXTT5=
EXTT6=
EXTT7=
EXTT8=
PLAYORDER=
